# xmcd
#
# Track frame offsets:
#	150
#	16307
#	34025
#	46102
#	59712
#	83605
#	97990
#	111132
#	130397
#	145112
#	160875
#	174847
#	192062
#	206697
#	219002
#	232742
#	250442
#	264982
#	278092
#	296662
#	308800
#
# Disc length: 4283 seconds
#
# Revision: 2
# Processed by: cddbd v1.5.1PL0 Copyright (c) Steve Scherf et al.
# Submitted via: EasyCDDAExtractor 7.0.6.1
#
DISCID=1a10b915
DTITLE=Various Artist - Ridin' All Over Again
DYEAR=1900
DGENRE=Country
TTITLE0=Smokey Dawson and John Williamson - Humpin' My Bluey
TTITLE1=Smokey Dawson and John Farnham - Cool Water
TTITLE2=Smokey Dawson and Slim Dusty - Fire Of Gidgee Coals
TTITLE3=Smokey Dawson and Lee Kernaghan - Days Of Old Khancoban
TTITLE4=Smokey Dawson &Jimmy Barnes - Cold Cold Heart
TTITLE5=Smokey Dawson and Gina Jeffreys - Now And Forever
TTITLE6=Smokey Dawson and James Blundell - Every Which Way But Loose
TTITLE7=Smokey Dawson With Col Joye and Judy Stone - Don't Fence Me In/Goldmine 
TTITLE7=In The Sky
TTITLE8=Smokey Dawson and Wayne Horsburgh - Walkin' The Floor
TTITLE9=Smokey Dawson and Anne Kirkpatrick - Where The Roper Flows Tonight
TTITLE10=Smokey Dawson and Angry Anderson - Throught The Eyes Of A Child
TTITLE11=Smokey Dawson and Reg Lindsay - Seven Spanish Angels
TTITLE12=Smokey Dawson and Johnny Chester - Love Brings A Smile
TTITLE13=Smokey Dawson and Alan Caswell - Where Do Cowboys Go
TTITLE14=Smokey Dawson &Jean Stafford - Wild Side Of Life/Honky Tonk Angels/To
TTITLE14=gether Again
TTITLE15=Smokey Dawson and Steve Gibson - Little Bit Of Cowboy
TTITLE16=Smokey Dawson and Ray Burgess - Crying Time
TTITLE17=Smokey Dawson and Mary Schneider - Lovesick Blues
TTITLE18=Smokey Dawson and Howie brothers-Arthur Blanch-Tony Taunton - Goodtime 
TTITLE18=Radio
TTITLE19=Smokey Dawson and Normie Rowe - Cheatin' Heart
TTITLE20=Smokey Dawson  - Living All Over Again
EXTD=
EXTT0=With John Williamson\n
EXTT1=With John Farnham\n
EXTT2=With Slim Dusty\n
EXTT3=With Lee Kernaghan\n
EXTT4=With Jimmy Barnes\n
EXTT5=With Gina Jeffreys\n
EXTT6=With James Blundell\n
EXTT7=With Col Joye/Judy Stone\n
EXTT8=
EXTT9=With Anne Kirkpatrick\n
EXTT10=With Angry Anderson\n
EXTT11=With Reg Linsay\n
EXTT12=With Johnny Chester\n
EXTT13=With Allan Caswell\n
EXTT14=With Jean Stafford\n
EXTT15=With Steve Gibson\n
EXTT16=With Ray Burgess\n
EXTT17=With Mary Schneider\n
EXTT18=With The Howie Brothers, Arthur Blanch \n& Tony Taunton\n
EXTT19=With Normie Rowe\n
EXTT20=
PLAYORDER=
